<svg width="100" height="100" viewBox="0 0 100 100" fill="none" xmlns="http://www.w3.org/2000/svg">
<circle cx="50" cy="50" r="49" fill="#0F567E"/>
<circle cx="50" cy="50" r="49" fill="url(#paint0_linear)"/>
<circle cx="50" cy="50" r="49" stroke="white" stroke-width="2"/>
<path d="M35.1983 37.6944L42.0557 37.4934L42.2567 44.3508L35.3993 44.5518L35.1983 37.6944ZM16.1391 38.2532L22.9965 38.0521L23.1975 44.9095L16.3401 45.1106L16.1391 38.2532ZM6.01466 51.9835C8.95014 53.2489 11.1988 54.1356 12.7605 54.6434C14.3223 55.1513 16.1188 55.6115 18.15 56.0242C20.1812 56.4368 22.1031 56.7305 23.9156 56.9054C25.7444 57.0797 27.6106 57.139 29.514 57.0832C33.3861 56.9697 37.0345 56.4475 40.4592 55.5166C43.9001 54.5853 48.0527 52.933 52.9169 50.5596L53.0536 55.2207C49.6277 57.7798 45.9742 59.7921 42.0929 61.2574C38.2122 62.7389 34.2544 63.5388 30.2197 63.6571C26.8195 63.7568 23.1595 63.3268 19.2397 62.367C14.8438 61.2747 10.4817 59.3916 6.15346 56.7178L6.01466 51.9835Z" fill="white"/>
<defs>
<linearGradient id="paint0_linear" x1="26" y1="13.5" x2="83" y2="92" gradientUnits="userSpaceOnUse">
<stop stop-color="#0F567E"/>
<stop offset="1" stop-color="#25404F"/>
</linearGradient>
</defs>
</svg>
